<svg width="19" height="22" viewBox="0 0 19 22" fill="none" xmlns="http://www.w3.org/2000/svg">
    <path d="M9.42206 21.5427C9.24351 21.5427 9.07228 21.4718 8.94603 21.3455C8.81978 21.2193 8.74885 21.048 8.74885 20.8695V19.1286L7.87906 19.9997C7.75265 20.1259 7.58127 20.1968 7.40263 20.1966C7.22398 20.1965 7.0527 20.1254 6.92647 19.999C6.80024 19.8726 6.72939 19.7012 6.72952 19.5226C6.72965 19.3439 6.80073 19.1727 6.92715 19.0464L8.74885 17.2247V15.7625L7.87906 16.6336C7.81647 16.6961 7.74218 16.7457 7.66043 16.7795C7.57869 16.8133 7.49108 16.8307 7.40263 16.8306C7.22398 16.8305 7.0527 16.7594 6.92647 16.633C6.80024 16.5066 6.72939 16.3352 6.72952 16.1565C6.72965 15.9779 6.80073 15.8066 6.92715 15.6804L8.74885 13.8587V11.9373L7.08468 12.8973L6.4182 15.3882C6.39521 15.4736 6.35563 15.5536 6.30171 15.6237C6.2478 15.6939 6.1806 15.7527 6.10396 15.7968C6.02732 15.8409 5.94273 15.8695 5.85504 15.881C5.76734 15.8924 5.67825 15.8865 5.59285 15.8635C5.50745 15.8405 5.42741 15.8009 5.3573 15.747C5.2872 15.6931 5.2284 15.6259 5.18427 15.5492C5.14013 15.4726 5.11153 15.388 5.10008 15.3003C5.08863 15.2126 5.09457 15.1235 5.11756 15.0381L5.43666 13.8506L4.17103 14.5804L3.50321 17.0712C3.45678 17.2437 3.34375 17.3907 3.18896 17.4798C3.03418 17.5689 2.85033 17.5929 2.67785 17.5465C2.50538 17.5001 2.35841 17.3871 2.26927 17.2323C2.18014 17.0775 2.15615 16.8936 2.20257 16.7212L2.52167 15.5336L1.01368 16.4034C0.85914 16.4913 0.676119 16.5144 0.504557 16.4679C0.332995 16.4213 0.18682 16.3087 0.0979317 16.1548C0.00904352 16.0008 -0.0153418 15.818 0.0300971 15.6461C0.0755361 15.4742 0.18711 15.3273 0.340472 15.2374L1.84846 14.3676L0.658226 14.0485C0.572825 14.0255 0.492788 13.986 0.422683 13.932C0.352579 13.8781 0.293781 13.8109 0.249647 13.7343C0.205513 13.6576 0.176906 13.5731 0.165461 13.4854C0.154015 13.3977 0.159955 13.3086 0.182941 13.2232C0.205927 13.1378 0.245508 13.0577 0.299426 12.9876C0.353344 12.9175 0.420542 12.8587 0.497183 12.8146C0.573824 12.7705 0.658408 12.7418 0.746104 12.7304C0.833801 12.719 0.922894 12.7249 1.00829 12.7479L3.49647 13.4144L4.76211 12.6846L3.57457 12.3655C3.48786 12.3439 3.40633 12.3052 3.33472 12.2518C3.26311 12.1983 3.20285 12.1312 3.15747 12.0542C3.11208 11.9772 3.08247 11.892 3.07037 11.8035C3.05826 11.7149 3.0639 11.6249 3.08696 11.5386C3.11002 11.4522 3.15003 11.3714 3.20466 11.3007C3.2593 11.2299 3.32746 11.1708 3.40518 11.1267C3.4829 11.0826 3.56862 11.0545 3.65734 11.0438C3.74606 11.0332 3.83601 11.0404 3.92194 11.0649L6.41281 11.7313L8.07564 10.7713L6.41147 9.81135L3.92194 10.4778C3.83601 10.5023 3.74606 10.5095 3.65734 10.4988C3.56862 10.4882 3.4829 10.46 3.40518 10.416C3.32746 10.3719 3.2593 10.3127 3.20466 10.242C3.15003 10.1713 3.11002 10.0904 3.08696 10.0041C3.0639 9.91779 3.05826 9.82774 3.07037 9.7392C3.08247 9.65067 3.11208 9.56544 3.15747 9.48847C3.20285 9.4115 3.26311 9.34433 3.33472 9.29089C3.40633 9.23744 3.48786 9.19879 3.57457 9.17718L4.76345 8.85808L3.49782 8.12832L1.00695 8.7948C0.835595 8.83751 0.654322 8.81117 0.502203 8.72148C0.350084 8.63178 0.239301 8.4859 0.193733 8.31528C0.148165 8.14467 0.171462 7.96298 0.258601 7.80938C0.345741 7.65579 0.489744 7.54258 0.659573 7.49416L1.84846 7.17506L0.340472 6.30527C0.263291 6.26139 0.195553 6.20268 0.141157 6.13251C0.0867602 6.06234 0.0467802 5.98211 0.0235183 5.89643C0.00025644 5.81075 -0.0058279 5.72131 0.00561571 5.63327C0.0170593 5.54523 0.0458049 5.46032 0.0901973 5.38343C0.13459 5.30654 0.193752 5.23919 0.264278 5.18527C0.334805 5.13134 0.415302 5.09189 0.501135 5.0692C0.586969 5.0465 0.676444 5.04101 0.764408 5.05304C0.852372 5.06507 0.937089 5.09437 1.01368 5.13928L2.52167 6.00906L2.20257 4.82017C2.15986 4.64882 2.18619 4.46755 2.27589 4.31543C2.36559 4.16331 2.51147 4.05253 2.68208 4.00696C2.8527 3.96139 3.03438 3.98469 3.18798 4.07183C3.34158 4.15897 3.45479 4.30297 3.50321 4.4728L4.16968 6.96233L5.43532 7.69208L5.11756 6.5032C5.07485 6.33184 5.10119 6.15057 5.19088 5.99845C5.28058 5.84633 5.42646 5.73555 5.59707 5.68998C5.76769 5.64441 5.94938 5.66771 6.10298 5.75485C6.25658 5.84199 6.36978 5.98599 6.4182 6.15582L7.08468 8.64535L8.74885 9.60534V7.684L6.92715 5.8623C6.80073 5.73607 6.72965 5.56479 6.72952 5.38615C6.72939 5.2075 6.80024 5.03612 6.92647 4.90971C7.0527 4.7833 7.22398 4.71221 7.40263 4.71209C7.58127 4.71196 7.75265 4.78281 7.87906 4.90904L8.74885 5.78017V4.31796L6.92715 2.49626C6.86455 2.43375 6.81489 2.35953 6.78098 2.27784C6.74707 2.19614 6.72958 2.10856 6.72952 2.0201C6.72946 1.93165 6.74682 1.84404 6.78061 1.7623C6.81441 1.68055 6.86397 1.60626 6.92647 1.54367C6.98898 1.48108 7.0632 1.43141 7.1449 1.3975C7.22659 1.36359 7.31417 1.34611 7.40263 1.34604C7.49108 1.34598 7.57869 1.36334 7.66043 1.39713C7.74218 1.43093 7.81647 1.48049 7.87906 1.54299L8.74885 2.41413V0.673209C8.74885 0.494663 8.81978 0.323429 8.94603 0.197178C9.07228 0.0709272 9.24351 0 9.42206 0C9.6006 0 9.77184 0.0709272 9.89809 0.197178C10.0243 0.323429 10.0953 0.494663 10.0953 0.673209V2.41413L10.9664 1.54299C11.0928 1.41676 11.2642 1.34592 11.4428 1.34604C11.6215 1.34617 11.7928 1.41726 11.919 1.54367C12.0452 1.67008 12.1161 1.84146 12.1159 2.0201C12.1158 2.19875 12.0447 2.37003 11.9183 2.49626L10.0953 4.31796V5.78017L10.9664 4.90904C11.0928 4.78281 11.2642 4.71196 11.4428 4.71209C11.6215 4.71221 11.7928 4.7833 11.919 4.90971C12.0452 5.03612 12.1161 5.2075 12.1159 5.38615C12.1158 5.56479 12.0447 5.73607 11.9183 5.8623L10.0953 7.684V9.60534L11.7594 8.64535L12.4259 6.15447C12.4489 6.06907 12.4885 5.98904 12.5424 5.91893C12.5963 5.84883 12.6635 5.79003 12.7402 5.7459C12.8168 5.70176 12.9014 5.67315 12.9891 5.66171C13.0768 5.65026 13.1659 5.6562 13.2513 5.67919C13.3367 5.70218 13.4167 5.74176 13.4868 5.79567C13.5569 5.84959 13.6157 5.91679 13.6598 5.99343C13.704 6.07007 13.7326 6.15466 13.744 6.24235C13.7555 6.33005 13.7495 6.41914 13.7266 6.50454L13.4088 7.69208L14.6744 6.96233L15.3409 4.47145C15.3873 4.29898 15.5004 4.15201 15.6552 4.06287C15.8099 3.97374 15.9938 3.94975 16.1663 3.99617C16.3387 4.04259 16.4857 4.15563 16.5748 4.31041C16.664 4.46519 16.688 4.64905 16.6415 4.82152L16.3238 6.00906L17.8318 5.13928C17.9863 5.05141 18.1693 5.02824 18.3409 5.07482C18.5125 5.1214 18.6586 5.23394 18.7475 5.3879C18.8364 5.54185 18.8608 5.72471 18.8154 5.89658C18.7699 6.06845 18.6584 6.21537 18.505 6.30527L16.997 7.17506L18.1859 7.49416C18.3584 7.54058 18.5053 7.65362 18.5945 7.8084C18.6836 7.96319 18.7076 8.14704 18.6612 8.31951C18.6148 8.49199 18.5017 8.63896 18.3469 8.72809C18.1921 8.81723 18.0083 8.84122 17.8358 8.7948L15.3476 8.12832L14.082 8.85808L15.2709 9.17718C15.4434 9.2236 15.5903 9.33664 15.6795 9.49142C15.7686 9.64621 15.7926 9.83006 15.7462 10.0025C15.6998 10.175 15.5867 10.322 15.4319 10.4111C15.2772 10.5002 15.0933 10.5242 14.9208 10.4778L12.4326 9.81135L10.7685 10.7713L12.4326 11.7313L14.9222 11.0649C15.0946 11.0186 15.2784 11.0428 15.4331 11.132C15.5877 11.2213 15.7006 11.3683 15.7469 11.5408C15.7931 11.7133 15.7689 11.8971 15.6797 12.0517C15.5904 12.2064 15.4434 12.3193 15.2709 12.3655L14.082 12.6846L15.3476 13.4144L17.8372 12.7479C18.0096 12.7016 18.1934 12.7258 18.3481 12.8151C18.5027 12.9043 18.6156 13.0514 18.6618 13.2238C18.7081 13.3963 18.6839 13.5801 18.5947 13.7348C18.5054 13.8894 18.3584 14.0023 18.1859 14.0485L16.997 14.3676L18.505 15.2374C18.6584 15.3273 18.7699 15.4742 18.8154 15.6461C18.8608 15.818 18.8364 16.0008 18.7475 16.1548C18.6586 16.3087 18.5125 16.4213 18.3409 16.4679C18.1693 16.5144 17.9863 16.4913 17.8318 16.4034L16.3238 15.5336L16.6415 16.7225C16.666 16.8084 16.6732 16.8984 16.6626 16.9871C16.6519 17.0758 16.6238 17.1615 16.5797 17.2393C16.5356 17.317 16.4765 17.3851 16.4058 17.4398C16.3351 17.4944 16.2542 17.5344 16.1678 17.5575C16.0815 17.5805 15.9915 17.5862 15.9029 17.5741C15.8144 17.562 15.7292 17.5324 15.6522 17.487C15.5752 17.4416 15.5081 17.3813 15.4546 17.3097C15.4012 17.2381 15.3625 17.1566 15.3409 17.0699L14.6744 14.5804L13.4088 13.8506L13.7266 15.0395C13.7693 15.2108 13.7429 15.3921 13.6532 15.5442C13.5635 15.6963 13.4177 15.8071 13.247 15.8527C13.0764 15.8983 12.8947 15.875 12.7411 15.7878C12.5875 15.7007 12.4743 15.5567 12.4259 15.3869L11.7594 12.8987L10.0953 11.9373V13.8587L11.9183 15.6804C12.0447 15.8066 12.1158 15.9779 12.1159 16.1565C12.1161 16.3352 12.0452 16.5066 11.919 16.633C11.7928 16.7594 11.6215 16.8305 11.4428 16.8306C11.2642 16.8307 11.0928 16.7599 10.9664 16.6336L10.0953 15.7625V17.2247L11.9183 19.0464C12.0447 19.1727 12.1158 19.3439 12.1159 19.5226C12.1161 19.7012 12.0452 19.8726 11.919 19.999C11.7928 20.1254 11.6215 20.1965 11.4428 20.1966C11.2642 20.1968 11.0928 20.1259 10.9664 19.9997L10.0953 19.1286V20.8695C10.0953 21.048 10.0243 21.2193 9.89809 21.3455C9.77184 21.4718 9.6006 21.5427 9.42206 21.5427Z" fill="white"/>
</svg>
