<svg width="17" height="17" viewBox="0 0 17 17" fill="none" xmlns="http://www.w3.org/2000/svg">
    <path d="M16.9381 10.3507C16.9864 10.5318 16.9611 10.7247 16.8676 10.887C16.7741 11.0494 16.6201 11.1678 16.4395 11.2163L14.231 11.8096L14.8228 14.0235C14.8471 14.1133 14.8535 14.207 14.8416 14.2993C14.8298 14.3916 14.7999 14.4806 14.7536 14.5613C14.7073 14.6419 14.6456 14.7126 14.572 14.7693C14.4985 14.826 14.4144 14.8676 14.3248 14.8917C14.2351 14.9158 14.1416 14.9219 14.0496 14.9096C13.9576 14.8974 13.8689 14.8671 13.7886 14.8204C13.7083 14.7737 13.638 14.7116 13.5817 14.6376C13.5255 14.5637 13.4843 14.4793 13.4606 14.3893L12.7619 11.7755L9.1874 9.70658V13.8443L11.0962 15.7579C11.2284 15.8905 11.3027 16.0703 11.3027 16.2577C11.3027 16.4452 11.2284 16.625 11.0962 16.7576C10.964 16.8901 10.7846 16.9646 10.5976 16.9646C10.4106 16.9646 10.2312 16.8901 10.099 16.7576L8.4823 15.1367L6.86559 16.7576C6.73335 16.8901 6.554 16.9646 6.36699 16.9646C6.17998 16.9646 6.00063 16.8901 5.8684 16.7576C5.73616 16.625 5.66187 16.4452 5.66187 16.2577C5.66187 16.0703 5.73616 15.8905 5.8684 15.7579L7.7772 13.8443V9.70658L4.20268 11.7755L3.50401 14.3893C3.48032 14.4793 3.43915 14.5637 3.38286 14.6376C3.32656 14.7116 3.25626 14.7737 3.17597 14.8204C3.09568 14.8671 3.00699 14.8974 2.91498 14.9096C2.82298 14.9219 2.72947 14.9158 2.63982 14.8917C2.55017 14.8676 2.46614 14.826 2.39256 14.7693C2.31897 14.7126 2.25728 14.6419 2.21101 14.5613C2.16475 14.4806 2.13482 14.3916 2.12295 14.2993C2.11108 14.207 2.1175 14.1133 2.14184 14.0235L2.7336 11.8096L0.52513 11.2163C0.435394 11.1926 0.351217 11.1513 0.277427 11.0949C0.203638 11.0384 0.141688 10.968 0.0951314 10.8875C0.0485746 10.807 0.0183268 10.7181 0.00612261 10.6258C-0.00608157 10.5336 -1.96478e-06 10.4399 0.024013 10.35C0.0480279 10.2601 0.0895056 10.1759 0.146067 10.1021C0.202628 10.0283 0.273161 9.9665 0.353618 9.92012C0.434075 9.87374 0.522875 9.84374 0.614923 9.83184C0.706972 9.81994 0.800459 9.82638 0.890021 9.85078L3.49767 10.5512L7.0721 8.4823L3.49758 6.41342L0.890021 7.11383C0.800459 7.13823 0.706972 7.14466 0.614923 7.13276C0.522875 7.12086 0.434075 7.09086 0.353618 7.04448C0.273161 6.9981 0.202628 6.93625 0.146067 6.86249C0.0895056 6.78872 0.0480279 6.70448 0.024013 6.61461C-1.96478e-06 6.52474 -0.00608157 6.431 0.00612261 6.33876C0.0183268 6.24653 0.0485746 6.15762 0.0951314 6.07713C0.141688 5.99664 0.203638 5.92616 0.277427 5.86972C0.351217 5.81329 0.435394 5.77201 0.52513 5.74827L2.73351 5.15504L2.14175 2.94107C2.11741 2.85129 2.11099 2.75757 2.12286 2.66529C2.13473 2.57301 2.16466 2.48399 2.21093 2.40334C2.25719 2.32268 2.31888 2.25197 2.39247 2.19527C2.46605 2.13857 2.55008 2.09699 2.63973 2.07291C2.72938 2.04884 2.82289 2.04274 2.91489 2.05498C3.0069 2.06721 3.09559 2.09753 3.17588 2.14421C3.25617 2.19088 3.32648 2.25298 3.38277 2.32696C3.43906 2.40093 3.48023 2.48531 3.50392 2.57527L4.20259 5.18914L7.7772 7.25802V3.12026L5.8684 1.20671C5.73616 1.07415 5.66187 0.89435 5.66187 0.706875C5.66187 0.5194 5.73616 0.339604 5.8684 0.207039C6.00063 0.074474 6.17998 0 6.36699 0C6.554 0 6.73335 0.074474 6.86559 0.207039L8.4823 1.82786L10.099 0.207039C10.2312 0.074474 10.4106 0 10.5976 0C10.7846 0 10.964 0.074474 11.0962 0.207039C11.2284 0.339604 11.3027 0.5194 11.3027 0.706875C11.3027 0.89435 11.2284 1.07415 11.0962 1.20671L9.1874 3.12026V7.25802L12.7619 5.18914L13.4606 2.57519C13.4846 2.48552 13.5259 2.40147 13.5823 2.32782C13.6386 2.25418 13.7089 2.19238 13.7891 2.14597C13.8693 2.09956 13.9578 2.06943 14.0496 2.05731C14.1414 2.0452 14.2347 2.05133 14.3242 2.07535C14.4136 2.09937 14.4975 2.14082 14.5709 2.19733C14.6444 2.25384 14.706 2.3243 14.7523 2.40469C14.7986 2.48508 14.8287 2.57383 14.8407 2.66586C14.8528 2.75789 14.8467 2.85141 14.8228 2.94107L14.231 5.15504L16.4395 5.74827C16.5292 5.77201 16.6134 5.81329 16.6872 5.86972C16.761 5.92616 16.8229 5.99664 16.8695 6.07713C16.916 6.15762 16.9463 6.24653 16.9585 6.33876C16.9707 6.431 16.9646 6.52474 16.9406 6.61461C16.9166 6.70448 16.8751 6.78872 16.8185 6.86249C16.762 6.93625 16.6914 6.9981 16.611 7.04448C16.5305 7.09086 16.4417 7.12086 16.3497 7.13276C16.2576 7.14466 16.1641 7.13823 16.0746 7.11383L13.4669 6.41342L9.89251 8.4823L13.467 10.5512L16.0746 9.85078C16.164 9.82675 16.2573 9.82063 16.3491 9.83275C16.4409 9.84487 16.5295 9.875 16.6097 9.92143C16.6898 9.96785 16.7601 10.0297 16.8165 10.1033C16.8729 10.177 16.9142 10.261 16.9382 10.3507H16.9381Z" fill="white"/>
</svg>
